<svg xmlns="http://www.w3.org/2000/svg" width="420" height="308" viewBox="0 0 420 308" role="img" aria-label="School 21 CareerHub — Talent Marketplace &amp; Student Career Platform">
<title>School 21 CareerHub — Talent Marketplace &amp; Student Career Platform</title>
<defs><linearGradient id="bd" x1="0" y1="0" x2="1" y2="1"><stop offset="0" stop-color="#38bdf8"/><stop offset="0.55" stop-color="#8b5cf6"/><stop offset="1" stop-color="#10b981"/></linearGradient><linearGradient id="tilecardcareerhub" x1="0" y1="0" x2="1" y2="1"><stop offset="0" stop-color="#8b5cf6"/><stop offset="1" stop-color="#38bdf8"/></linearGradient><radialGradient id="glowcardcareerhub" cx="1" cy="0" r="0.9"><stop offset="0" stop-color="#8b5cf6" stop-opacity="0.22"/><stop offset="1" stop-color="#8b5cf6" stop-opacity="0"/></radialGradient><linearGradient id="edgecardcareerhub" x1="0" y1="0" x2="1" y2="0"><stop offset="0" stop-color="#8b5cf6" stop-opacity="0"/><stop offset="0.5" stop-color="#8b5cf6" stop-opacity="0.9"/><stop offset="1" stop-color="#38bdf8" stop-opacity="0"/></linearGradient><clipPath id="clipcardcareerhub"><rect x="0.75" y="0.75" width="418.5" height="306.5" rx="16"/></clipPath></defs>
<rect x="0.75" y="0.75" width="418.5" height="306.5" rx="16" fill="#0d1117" stroke="url(#bd)" stroke-opacity="0.55" stroke-width="1.5"/>
<g clip-path="url(#clipcardcareerhub)"><rect width="420" height="308" fill="url(#glowcardcareerhub)"/><rect x="50.4" y="0.75" width="319.2" height="2" fill="url(#edgecardcareerhub)"/></g>
<rect x="24" y="24" width="40" height="40" rx="11" fill="url(#tilecardcareerhub)"/><g transform="translate(24,24)" fill="none" stroke="#ffffff" stroke-width="2" stroke-linecap="round" stroke-linejoin="round"><rect x="10" y="14" width="20" height="14" rx="2.5"/><path d="M16 14v-1.5a2 2 0 0 1 2-2h4a2 2 0 0 1 2 2V14M10 20.5h20"/></g>
<g transform="translate(288.0,33)"><rect width="108.0" height="22" rx="11" fill="#10b981" fill-opacity="0.12" stroke="#10b981" stroke-opacity="0.5"/><circle cx="12" cy="11" r="3" fill="#10b981"/><text x="22" y="14.7" font-family="-apple-system, BlinkMacSystemFont, 'Segoe UI', Helvetica, Arial, sans-serif" font-size="10" font-weight="700" letter-spacing="0.8" fill="#10b981">PRODUCTION</text></g>
<text x="24" y="98" font-family="-apple-system, BlinkMacSystemFont, 'Segoe UI', Helvetica, Arial, sans-serif" font-size="19" font-weight="700" fill="#ffffff">School 21 CareerHub</text>
<text x="24" y="118" font-family="-apple-system, BlinkMacSystemFont, 'Segoe UI', Helvetica, Arial, sans-serif" font-size="12" fill="#8b5cf6" fill-opacity="0.95">Talent Marketplace &amp; Student Career Platform</text>
<text font-family="-apple-system, BlinkMacSystemFont, 'Segoe UI', Helvetica, Arial, sans-serif" font-size="13" fill="#9da7b3"><tspan x="24" y="148">Students and employers lacked one place to connect;</tspan><tspan x="24" y="167">portfolios, vacancy filters and application tracking.</tspan></text>
<line x1="24" y1="184" x2="396" y2="184" stroke="#30363d" stroke-dasharray="3 5"/>
<g transform="translate(24.0,198)"><rect width="73.3" height="24" rx="12.0" fill="#38bdf8" fill-opacity="0.10" stroke="#38bdf8" stroke-opacity="0.45"/><circle cx="11" cy="12.0" r="2.5" fill="#38bdf8"/><text x="19" y="16.0" font-family="-apple-system, BlinkMacSystemFont, 'Segoe UI', Helvetica, Arial, sans-serif" font-size="11" font-weight="600" fill="#e6edf3">Next.js</text></g><g transform="translate(105.3,198)"><rect width="59.2" height="24" rx="12.0" fill="#38bdf8" fill-opacity="0.10" stroke="#38bdf8" stroke-opacity="0.45"/><circle cx="11" cy="12.0" r="2.5" fill="#38bdf8"/><text x="19" y="16.0" font-family="-apple-system, BlinkMacSystemFont, 'Segoe UI', Helvetica, Arial, sans-serif" font-size="11" font-weight="600" fill="#e6edf3">React</text></g><g transform="translate(172.5,198)"><rect width="94.4" height="24" rx="12.0" fill="#38bdf8" fill-opacity="0.10" stroke="#38bdf8" stroke-opacity="0.45"/><circle cx="11" cy="12.0" r="2.5" fill="#38bdf8"/><text x="19" y="16.0" font-family="-apple-system, BlinkMacSystemFont, 'Segoe UI', Helvetica, Arial, sans-serif" font-size="11" font-weight="600" fill="#e6edf3">TypeScript</text></g><g transform="translate(274.9,198)"><rect width="108.5" height="24" rx="12.0" fill="#38bdf8" fill-opacity="0.10" stroke="#38bdf8" stroke-opacity="0.45"/><circle cx="11" cy="12.0" r="2.5" fill="#38bdf8"/><text x="19" y="16.0" font-family="-apple-system, BlinkMacSystemFont, 'Segoe UI', Helvetica, Arial, sans-serif" font-size="11" font-weight="600" fill="#e6edf3">Tailwind CSS</text></g><g transform="translate(24.0,230)"><rect width="87.4" height="24" rx="12.0" fill="#38bdf8" fill-opacity="0.10" stroke="#38bdf8" stroke-opacity="0.45"/><circle cx="11" cy="12.0" r="2.5" fill="#38bdf8"/><text x="19" y="16.0" font-family="-apple-system, BlinkMacSystemFont, 'Segoe UI', Helvetica, Arial, sans-serif" font-size="11" font-weight="600" fill="#e6edf3">ShadCN UI</text></g>
<text x="24" y="286" font-family="ui-monospace, SFMono-Regular, 'SF Mono', Menlo, Consolas, 'Liberation Mono', monospace" font-size="11.5" fill="#38bdf8">↗ careerhub.21-school.uz</text>
</svg>
